<svg xmlns="http://www.w3.org/2000/svg" width="512" height="512" viewBox="0 0 512 512">
  <defs>
    <linearGradient id="leaf" x1="0%" y1="0%" x2="100%" y2="100%">
      <stop offset="0%" stop-color="#7ed957"/>
      <stop offset="100%" stop-color="#2f7d32"/>
    </linearGradient>
    <linearGradient id="coin" x1="0%" y1="0%" x2="100%" y2="100%">
      <stop offset="0%" stop-color="#ffe082"/>
      <stop offset="100%" stop-color="#f0b429"/>
    </linearGradient>
  </defs>
  <rect x="32" y="32" width="448" height="448" rx="96" fill="#f4faf0"/>
  <g transform="translate(256,210)">
    <ellipse cx="0" cy="-58" rx="46" ry="64" fill="url(#leaf)"/>
    <ellipse cx="0" cy="-58" rx="46" ry="64" fill="url(#leaf)" transform="rotate(90)"/>
    <ellipse cx="0" cy="-58" rx="46" ry="64" fill="url(#leaf)" transform="rotate(180)"/>
    <ellipse cx="0" cy="-58" rx="46" ry="64" fill="url(#leaf)" transform="rotate(270)"/>
    <circle cx="0" cy="0" r="28" fill="#1b5e20"/>
  </g>
  <rect x="236" y="210" width="40" height="28" rx="4" fill="#1b5e20"/>
  <path d="M216 210h80v12c0 8-8 14-16 14h-48c-8 0-16-6-16-14v-12z" fill="#1b5e20"/>
  <circle cx="256" cy="204" r="6" fill="#ffd54a"/>
  <path d="M256 204c18-6 34-2 42 10" fill="none" stroke="#ffd54a" stroke-width="6" stroke-linecap="round"/>
  <circle cx="340" cy="320" r="54" fill="url(#coin)" stroke="#e6a800" stroke-width="6"/>
  <text x="340" y="338" text-anchor="middle" font-size="52" font-family="Nunito,Arial,sans-serif" font-weight="900" fill="#fff">P</text>
</svg>
